# xmcd
#
# Track frame offsets:
#	150
#	23359
#	36602
#	51865
#	72935
#	94971
#	115165
#	131629
#	148710
#	167764
#	184108
#	204196
#	229106
#
# Disc length: 3517 seconds
#
# Revision: 12
# Processed by: cddbd v1.5.2PL0 Copyright (c) Steve Scherf et al.
# Submitted via: Jack! The Knife 20 Magnifico
#
DISCID=b50dbb0d
DTITLE=Voivod - Infini
DYEAR=2009
DGENRE=Metal
TTITLE0=God Phones
TTITLE1=From The Cave
TTITLE2=Earthache
TTITLE3=Global Warning
TTITLE4=A Room With A V.U.
TTITLE5=Destroy After Reading
TTITLE6=Treasure Chase
TTITLE7=Krap Radio
TTITLE8=In Orbit
TTITLE9=Deathproof
TTITLE10=Pyramidome
TTITLE11=Morpheus
TTITLE12=Volcano
EXTD=Voivod, Newsted, Robinson
EXTT0=Bélanger, D'Amour, Langevin, Newsted
EXTT1=Bélanger, D'Amour, Langevin, Newsted
EXTT2=Bélanger, D'Amour, Langevin, Newsted
EXTT3=Bélanger, D'Amour, Langevin, Newsted
EXTT4=Bélanger, D'Amour, Langevin, Newsted
EXTT5=Bélanger, D'Amour, Langevin, Newsted
EXTT6=Bélanger, D'Amour, Langevin, Newsted
EXTT7=Bélanger, D'Amour, Langevin, Newsted
EXTT8=Bélanger, D'Amour, Langevin, Newsted
EXTT9=Bélanger, D'Amour, Langevin, Newsted
EXTT10=Bélanger, D'Amour, Langevin, Newsted
EXTT11=Bélanger, D'Amour, Langevin, Newsted
EXTT12=Bélanger, D'Amour, Langevin, Newsted
PLAYORDER=
